<?xml version="1.0" standalone="no"?>
<!DOCTYPE svg PUBLIC "-//W3C//DTD SVG 20010904//EN"
 "http://www.w3.org/TR/2001/REC-SVG-20010904/DTD/svg10.dtd">
<svg version="1.0" xmlns="http://www.w3.org/2000/svg"
 width="526.000000pt" height="541.000000pt" viewBox="0 0 526.000000 541.000000"
 preserveAspectRatio="xMidYMid meet">
<metadata>
Created by potrace 1.15, written by Peter Selinger 2001-2017
</metadata>
<g transform="translate(0.000000,541.000000) scale(0.100000,-0.100000)"
fill="#000000" stroke="none">
<path d="M2625 5248 l-25 -19 0 -466 c0 -432 -1 -467 -17 -479 -15 -11 -234
-13 -1205 -14 -874 0 -1194 -3 -1212 -12 -34 -15 -40 -37 -20 -83 9 -22 18
-46 20 -54 17 -69 75 -224 88 -237 14 -13 53 -16 244 -21 428 -10 1282 -9
1282 2 0 6 5 3 10 -5 5 -8 10 -10 10 -5 0 6 62 10 165 10 103 0 165 -4 165
-10 0 -5 4 -4 9 3 11 17 21 17 32 0 5 -7 9 -8 9 -3 0 12 357 13 407 1 36 -8
43 -31 31 -106 -15 -98 -18 -131 -28 -300 -10 -157 -34 -409 -45 -471 -11 -59
-35 -160 -54 -229 -12 -41 -26 -94 -31 -118 -13 -56 -71 -204 -121 -312 -21
-47 -39 -90 -39 -95 0 -6 -9 -16 -21 -23 -17 -11 -24 -11 -37 0 -27 20 -231
232 -232 240 0 4 -63 70 -139 148 -77 77 -143 149 -146 160 -4 11 -11 20 -16
20 -5 0 -9 5 -9 11 0 6 -8 23 -18 37 -10 15 -43 79 -72 142 -30 63 -67 137
-82 163 -16 26 -65 119 -110 205 -90 173 -178 301 -209 303 -10 1 -29 2 -41 3
-49 4 -228 -78 -277 -127 -26 -24 -31 -37 -31 -77 0 -26 4 -60 9 -76 5 -16 17
-56 26 -89 10 -33 23 -71 30 -85 7 -14 18 -47 24 -73 6 -27 20 -67 31 -90 11
-22 20 -44 20 -49 0 -5 9 -27 19 -51 25 -52 61 -165 61 -187 0 -9 14 -37 30
-63 17 -26 30 -52 30 -57 0 -6 3 -10 8 -10 4 0 12 -10 18 -23 27 -56 78 -142
86 -145 4 -2 8 -9 8 -15 0 -7 12 -25 26 -42 14 -16 33 -42 42 -57 9 -16 19
-28 23 -28 4 0 12 -13 19 -30 7 -16 16 -30 21 -30 4 0 10 -8 14 -19 3 -10 13
-28 23 -39 9 -11 33 -39 52 -63 19 -24 44 -52 55 -63 11 -12 31 -37 44 -56 28
-40 140 -153 193 -193 37 -29 128 -155 128 -179 0 -32 -201 -253 -312 -341
-26 -21 -53 -43 -60 -50 -66 -61 -230 -177 -442 -311 -76 -48 -329 -175 -431
-216 -44 -17 -100 -40 -125 -50 -224 -94 -308 -129 -329 -135 -42 -13 -90 -46
-96 -66 -7 -22 12 -79 26 -79 4 0 11 -9 14 -20 3 -11 12 -26 19 -32 6 -7 26
-33 44 -58 53 -76 136 -161 157 -161 32 -1 79 10 136 32 30 11 88 31 129 45
142 45 285 94 305 103 11 6 85 32 165 60 221 76 313 110 330 125 8 8 26 17 40
21 14 4 54 24 90 44 36 21 94 53 130 70 36 18 72 38 80 45 18 15 84 46 98 46
6 0 12 4 14 8 2 5 32 24 68 43 36 18 67 36 70 39 3 3 31 23 63 44 31 20 68 47
80 59 12 12 40 34 62 49 22 15 72 57 112 93 39 36 82 69 95 74 36 13 83 -8
142 -65 7 -6 28 -19 46 -29 19 -10 37 -21 40 -25 3 -3 50 -29 105 -57 134 -68
189 -97 195 -103 12 -12 108 -59 145 -70 44 -14 107 -41 115 -49 11 -13 89
-51 103 -51 8 0 17 -3 19 -7 4 -9 78 -46 128 -63 62 -22 170 -74 170 -82 0 -4
7 -8 15 -8 14 0 72 -35 85 -51 3 -4 34 -21 70 -39 36 -18 68 -37 71 -42 14
-21 248 -111 419 -160 19 -6 43 -17 52 -26 10 -8 35 -24 57 -36 21 -11 62 -34
92 -50 65 -35 119 -37 164 -4 50 35 116 90 144 119 131 134 187 212 271 380
23 46 46 86 50 89 14 9 76 145 76 165 -1 27 -95 87 -203 129 -48 18 -106 41
-128 49 -22 9 -80 28 -130 42 -49 15 -101 31 -115 36 -14 4 -36 11 -50 13 -32
7 -306 81 -390 106 -36 11 -90 27 -120 36 -30 9 -84 26 -120 39 -99 35 -273
90 -380 120 -15 5 -26 8 -215 69 -60 20 -117 38 -126 40 -25 7 -157 75 -181
94 -47 38 -68 62 -68 80 0 10 31 65 68 123 38 57 92 147 122 199 29 52 56 97
61 100 4 3 17 32 30 65 12 33 25 65 29 70 10 15 55 186 75 290 19 103 18 97
32 150 45 173 70 350 83 580 5 94 14 193 20 220 6 28 11 118 11 200 -1 170 3
200 27 212 9 4 328 10 707 13 l690 5 40 30 c22 17 45 35 51 40 6 6 22 17 34
25 40 27 100 88 100 102 0 23 -75 92 -235 219 -44 34 -82 65 -85 68 -3 4 -21
18 -40 32 -19 15 -51 41 -70 58 -61 55 -95 67 -133 45 -8 -5 -45 -37 -83 -71
-139 -124 -178 -153 -213 -159 -20 -4 -197 -8 -393 -8 -330 -1 -359 0 -375 17
-17 16 -18 52 -23 430 -3 227 -7 413 -8 413 -38 23 -142 41 -277 48 -60 3
-130 8 -155 11 -25 2 -92 9 -150 15 -58 6 -125 15 -150 20 -92 19 -119 19
-145 -2z"/>
</g>
</svg>
